<svg xmlns="http://www.w3.org/2000/svg" viewBox="0 0 269.41 69.79"><title>Recurso 15@1x</title><g id="Capa_2" data-name="Capa 2"><g id="Capa_1-2" data-name="Capa 1"><path d="M53.22,28.39A26.61,26.61,0,1,1,0,28.39V15.09H39.91v13.3H13.3a13.31,13.31,0,0,0,26.61,0Z" style="fill:#fa775a"/><rect x="39.91" y="1.79" width="13.3" height="13.3" style="fill:#fa775a"/><path d="M99.13,22.45V0H107V54.06H99.13V49.74A13.64,13.64,0,0,1,87.83,55c-10.06,0-18-7.92-18-18.92s7.92-18.92,18-18.92A13.67,13.67,0,0,1,99.13,22.45ZM77.92,36.08c0,6.31,4.09,11.53,10.85,11.53,6.49,0,10.85-5,10.85-11.53S95.26,24.55,88.77,24.55C82,24.55,77.92,29.77,77.92,36.08Z" style="fill:#fa775a"/><path d="M147.8,54.06H140V49.74A13.64,13.64,0,0,1,128.65,55c-10.06,0-18-7.92-18-18.92s7.92-18.92,18-18.92A13.67,13.67,0,0,1,140,22.45V18.09h7.85Zm-29.06-18c0,6.31,4.09,11.53,10.85,11.53,6.49,0,10.85-5,10.85-11.53s-4.35-11.53-10.85-11.53C122.83,24.55,118.74,29.77,118.74,36.08Z" style="fill:#fa775a"/><path d="M186.79,31.46v22.6H178.9v-20c0-6-3.12-9.42-8.37-9.42-5.07,0-9.31,3.34-9.31,9.5V54.06h-7.88v-36h7.81v4.39c2.89-4.24,7.36-5.33,11-5.33C180.74,17.16,186.79,23.05,186.79,31.46Z" style="fill:#fa775a"/><path d="M219.13,22.41V18.09H227V51.54c0,11.3-7.28,18.25-19.3,18.25-5.37,0-11.26-1.46-15.05-4.17L195.51,59a23.56,23.56,0,0,0,12.2,3.64c7.36,0,11.41-4.05,11.41-10.74V49c-2.7,3.45-6.76,5.26-12,5.26-8.22,0-16.67-6.91-16.67-18.55s8.45-18.55,16.67-18.55C212.37,17.16,216.42,19,219.13,22.41ZM198.55,35.7c0,6,4,11.15,10.62,11.15,6.34,0,10.62-4.84,10.62-11.15s-4.28-11.15-10.62-11.15C202.53,24.55,198.55,29.62,198.55,35.7Z" style="fill:#fa775a"/><path d="M269.41,36.08C269.41,46.85,261.15,55,250,55S230.7,46.85,230.7,36.08,238.93,17.16,250,17.16,269.41,25.3,269.41,36.08Zm-30.63,0c0,6.79,4.84,11.53,11.26,11.53s11.3-4.73,11.3-11.53S256.46,24.55,250,24.55,238.78,29.28,238.78,36.08Z" style="fill:#fa775a"/></g></g></svg>